<mxfile host="app.diagrams.net" modified="2021-06-19T08:59:51.991Z" agent="5.0 (Macintosh; Intel Mac OS X 10_15_7) AppleWebKit/537.36 (KHTML, like Gecko) Chrome/89.0.4389.90 Safari/537.36" etag="Mn7XFvl9awFb4oCWZJWV" version="14.8.0" type="github">
  <diagram id="GyAWEN38JBdC2jVEz6Jb" name="Page-1">
    <mxGraphModel dx="2404" dy="836" grid="1" gridSize="10" guides="1" tooltips="1" connect="1" arrows="1" fold="1" page="1" pageScale="1" pageWidth="850" pageHeight="1100" math="0" shadow="0">
      <root>
        <mxCell id="0" />
        <mxCell id="1" parent="0" />
        <mxCell id="mB1IJVl_30VsdPy1DvS--32" value="" style="rounded=0;whiteSpace=wrap;html=1;shadow=0;" vertex="1" parent="1">
          <mxGeometry x="270" y="310" width="290" height="320" as="geometry" />
        </mxCell>
        <mxCell id="mB1IJVl_30VsdPy1DvS--41" style="edgeStyle=orthogonalEdgeStyle;rounded=0;orthogonalLoop=1;jettySize=auto;html=1;exitX=0.5;exitY=1;exitDx=0;exitDy=0;entryX=0.5;entryY=0;entryDx=0;entryDy=0;" edge="1" parent="1" source="mB1IJVl_30VsdPy1DvS--37" target="mB1IJVl_30VsdPy1DvS--36">
          <mxGeometry relative="1" as="geometry">
            <mxPoint x="415" y="550" as="targetPoint" />
          </mxGeometry>
        </mxCell>
        <mxCell id="mB1IJVl_30VsdPy1DvS--37" value="" style="rounded=0;whiteSpace=wrap;html=1;shadow=0;" vertex="1" parent="1">
          <mxGeometry x="321.25" y="360" width="178.75" height="150" as="geometry" />
        </mxCell>
        <mxCell id="mB1IJVl_30VsdPy1DvS--4" style="edgeStyle=orthogonalEdgeStyle;rounded=0;orthogonalLoop=1;jettySize=auto;html=1;exitX=1;exitY=0.25;exitDx=0;exitDy=0;entryX=0;entryY=0.25;entryDx=0;entryDy=0;" edge="1" parent="1" source="mB1IJVl_30VsdPy1DvS--1" target="mB1IJVl_30VsdPy1DvS--2">
          <mxGeometry relative="1" as="geometry" />
        </mxCell>
        <mxCell id="mB1IJVl_30VsdPy1DvS--10" value="" style="edgeStyle=orthogonalEdgeStyle;rounded=0;orthogonalLoop=1;jettySize=auto;html=1;" edge="1" parent="1" source="mB1IJVl_30VsdPy1DvS--1" target="mB1IJVl_30VsdPy1DvS--7">
          <mxGeometry relative="1" as="geometry" />
        </mxCell>
        <mxCell id="mB1IJVl_30VsdPy1DvS--1" value="server" style="rounded=0;whiteSpace=wrap;html=1;" vertex="1" parent="1">
          <mxGeometry x="60" y="110" width="110" height="100" as="geometry" />
        </mxCell>
        <mxCell id="mB1IJVl_30VsdPy1DvS--3" style="edgeStyle=orthogonalEdgeStyle;rounded=0;orthogonalLoop=1;jettySize=auto;html=1;entryX=1;entryY=0.5;entryDx=0;entryDy=0;" edge="1" parent="1" source="mB1IJVl_30VsdPy1DvS--2" target="mB1IJVl_30VsdPy1DvS--1">
          <mxGeometry relative="1" as="geometry" />
        </mxCell>
        <mxCell id="mB1IJVl_30VsdPy1DvS--21" value="" style="edgeStyle=orthogonalEdgeStyle;rounded=0;orthogonalLoop=1;jettySize=auto;html=1;entryX=0.5;entryY=0;entryDx=0;entryDy=0;" edge="1" parent="1" source="mB1IJVl_30VsdPy1DvS--2" target="mB1IJVl_30VsdPy1DvS--32">
          <mxGeometry relative="1" as="geometry">
            <mxPoint x="410" y="310" as="targetPoint" />
          </mxGeometry>
        </mxCell>
        <mxCell id="mB1IJVl_30VsdPy1DvS--2" value="client" style="rounded=0;whiteSpace=wrap;html=1;" vertex="1" parent="1">
          <mxGeometry x="350" y="110" width="110" height="100" as="geometry" />
        </mxCell>
        <mxCell id="mB1IJVl_30VsdPy1DvS--5" value="&lt;font style=&quot;font-size: 9px&quot;&gt;Data transport with UNIX SIGNAL&lt;/font&gt;" style="text;html=1;strokeColor=none;fillColor=none;align=center;verticalAlign=middle;whiteSpace=wrap;rounded=0;" vertex="1" parent="1">
          <mxGeometry x="110" y="100" width="300" height="40" as="geometry" />
        </mxCell>
        <mxCell id="mB1IJVl_30VsdPy1DvS--6" value="getpid" style="rounded=0;whiteSpace=wrap;html=1;" vertex="1" parent="1">
          <mxGeometry x="87.5" y="250" width="55" height="30" as="geometry" />
        </mxCell>
        <mxCell id="mB1IJVl_30VsdPy1DvS--14" style="edgeStyle=orthogonalEdgeStyle;rounded=0;orthogonalLoop=1;jettySize=auto;html=1;exitX=0.5;exitY=1;exitDx=0;exitDy=0;entryX=0.5;entryY=0;entryDx=0;entryDy=0;" edge="1" parent="1" source="mB1IJVl_30VsdPy1DvS--7" target="mB1IJVl_30VsdPy1DvS--11">
          <mxGeometry relative="1" as="geometry" />
        </mxCell>
        <mxCell id="mB1IJVl_30VsdPy1DvS--7" value="signal(SIGUSR, handler)" style="rounded=0;whiteSpace=wrap;html=1;" vertex="1" parent="1">
          <mxGeometry x="32.5" y="310" width="165" height="50" as="geometry" />
        </mxCell>
        <mxCell id="mB1IJVl_30VsdPy1DvS--25" style="edgeStyle=orthogonalEdgeStyle;rounded=0;orthogonalLoop=1;jettySize=auto;html=1;exitX=0.5;exitY=1;exitDx=0;exitDy=0;entryX=0.44;entryY=-0.026;entryDx=0;entryDy=0;entryPerimeter=0;" edge="1" parent="1" source="mB1IJVl_30VsdPy1DvS--11" target="mB1IJVl_30VsdPy1DvS--23">
          <mxGeometry relative="1" as="geometry" />
        </mxCell>
        <mxCell id="mB1IJVl_30VsdPy1DvS--11" value="handler(sign)&lt;br&gt;&lt;font style=&quot;font-size: 8px&quot;&gt;sign = SIGUSR1 or SIGUSR2&lt;/font&gt;" style="rounded=0;whiteSpace=wrap;html=1;" vertex="1" parent="1">
          <mxGeometry x="32.5" y="390" width="165" height="50" as="geometry" />
        </mxCell>
        <mxCell id="mB1IJVl_30VsdPy1DvS--16" value="argv check" style="rounded=0;whiteSpace=wrap;html=1;" vertex="1" parent="1">
          <mxGeometry x="368.75" y="250" width="72.5" height="30" as="geometry" />
        </mxCell>
        <mxCell id="mB1IJVl_30VsdPy1DvS--40" style="edgeStyle=orthogonalEdgeStyle;rounded=0;orthogonalLoop=1;jettySize=auto;html=1;exitX=0.5;exitY=1;exitDx=0;exitDy=0;entryX=0.5;entryY=0;entryDx=0;entryDy=0;" edge="1" parent="1" source="mB1IJVl_30VsdPy1DvS--18" target="mB1IJVl_30VsdPy1DvS--28">
          <mxGeometry relative="1" as="geometry" />
        </mxCell>
        <mxCell id="mB1IJVl_30VsdPy1DvS--18" value="char_to_bit(char c)" style="rounded=0;whiteSpace=wrap;html=1;" vertex="1" parent="1">
          <mxGeometry x="340.63" y="380" width="140" height="40" as="geometry" />
        </mxCell>
        <mxCell id="mB1IJVl_30VsdPy1DvS--22" value="&lt;font style=&quot;font-size: 30px&quot;&gt;Minitalk&lt;/font&gt;" style="text;html=1;strokeColor=none;fillColor=none;align=center;verticalAlign=middle;whiteSpace=wrap;rounded=0;" vertex="1" parent="1">
          <mxGeometry x="110" y="20" width="280" height="70" as="geometry" />
        </mxCell>
        <mxCell id="mB1IJVl_30VsdPy1DvS--23" value="write c_bit" style="rounded=0;whiteSpace=wrap;html=1;" vertex="1" parent="1">
          <mxGeometry x="72.5" y="480" width="97.5" height="50" as="geometry" />
        </mxCell>
        <mxCell id="mB1IJVl_30VsdPy1DvS--28" value="kill(pid, SIGUSR)" style="rounded=0;whiteSpace=wrap;html=1;" vertex="1" parent="1">
          <mxGeometry x="340.62" y="445" width="140" height="50" as="geometry" />
        </mxCell>
        <mxCell id="mB1IJVl_30VsdPy1DvS--34" value="&amp;nbsp;&lt;span style=&quot;color: rgba(0 , 0 , 0 , 0) ; font-family: monospace ; font-size: 0px&quot;&gt;%3CmxGraphModel%3E%3Croot%3E%3CmxCell%20id%3D%220%22%2F%3E%3CmxCell%20id%3D%221%22%20parent%3D%220%22%2F%3E%3CmxCell%20id%3D%222%22%20value%3D%22c_to_bit(char%20c)%22%20style%3D%22rounded%3D0%3BwhiteSpace%3Dwrap%3Bhtml%3D1%3B%22%20vertex%3D%221%22%20parent%3D%221%22%3E%3CmxGeometry%20x%3D%22360%22%20y%3D%22310%22%20width%3D%22100%22%20height%3D%2250%22%20as%3D%22geometry%22%2F%3E%3C%2FmxCell%3E%3C%2Froot%3E%3C%2FmxGraphModel%3E&lt;/span&gt;" style="text;html=1;strokeColor=none;fillColor=none;align=center;verticalAlign=middle;whiteSpace=wrap;rounded=0;shadow=0;" vertex="1" parent="1">
          <mxGeometry x="300" y="330" width="200" height="20" as="geometry" />
        </mxCell>
        <mxCell id="mB1IJVl_30VsdPy1DvS--35" value="send_sig(pid, string)" style="text;html=1;strokeColor=none;fillColor=none;align=center;verticalAlign=middle;whiteSpace=wrap;rounded=0;shadow=0;" vertex="1" parent="1">
          <mxGeometry x="240" y="330" width="230" height="20" as="geometry" />
        </mxCell>
        <mxCell id="mB1IJVl_30VsdPy1DvS--36" value="end_checker(pid)" style="rounded=0;whiteSpace=wrap;html=1;" vertex="1" parent="1">
          <mxGeometry x="348.13" y="560" width="125" height="30" as="geometry" />
        </mxCell>
        <mxCell id="mB1IJVl_30VsdPy1DvS--43" value="0000000" style="rounded=0;whiteSpace=wrap;html=1;shadow=0;" vertex="1" parent="1">
          <mxGeometry x="-7.105427357601002e-15" y="820" width="68.75" height="20" as="geometry" />
        </mxCell>
        <mxCell id="mB1IJVl_30VsdPy1DvS--45" value="0000001" style="rounded=0;whiteSpace=wrap;html=1;shadow=0;" vertex="1" parent="1">
          <mxGeometry x="96.25" y="820" width="68.75" height="20" as="geometry" />
        </mxCell>
        <mxCell id="mB1IJVl_30VsdPy1DvS--52" value="쉬프트 연산 수행 과정" style="text;html=1;strokeColor=none;fillColor=none;align=center;verticalAlign=middle;whiteSpace=wrap;rounded=0;shadow=0;" vertex="1" parent="1">
          <mxGeometry x="-100" y="740" width="310" height="20" as="geometry" />
        </mxCell>
        <mxCell id="mB1IJVl_30VsdPy1DvS--55" value="0000011" style="rounded=0;whiteSpace=wrap;html=1;shadow=0;" vertex="1" parent="1">
          <mxGeometry x="193.13" y="820" width="68.75" height="20" as="geometry" />
        </mxCell>
        <mxCell id="mB1IJVl_30VsdPy1DvS--56" value="0000110" style="rounded=0;whiteSpace=wrap;html=1;shadow=0;" vertex="1" parent="1">
          <mxGeometry x="288.13" y="820" width="68.75" height="20" as="geometry" />
        </mxCell>
        <mxCell id="mB1IJVl_30VsdPy1DvS--59" value="0001100" style="rounded=0;whiteSpace=wrap;html=1;shadow=0;" vertex="1" parent="1">
          <mxGeometry x="379.38" y="820" width="68.12" height="20" as="geometry" />
        </mxCell>
        <mxCell id="mB1IJVl_30VsdPy1DvS--60" value="0011000" style="rounded=0;whiteSpace=wrap;html=1;shadow=0;" vertex="1" parent="1">
          <mxGeometry x="467.5" y="820" width="68.75" height="20" as="geometry" />
        </mxCell>
        <mxCell id="mB1IJVl_30VsdPy1DvS--81" value="" style="edgeStyle=orthogonalEdgeStyle;rounded=0;orthogonalLoop=1;jettySize=auto;html=1;" edge="1" parent="1" source="mB1IJVl_30VsdPy1DvS--62" target="mB1IJVl_30VsdPy1DvS--80">
          <mxGeometry relative="1" as="geometry" />
        </mxCell>
        <mxCell id="mB1IJVl_30VsdPy1DvS--62" value="0110000" style="rounded=0;whiteSpace=wrap;html=1;shadow=0;" vertex="1" parent="1">
          <mxGeometry x="557.5" y="820" width="68.75" height="20" as="geometry" />
        </mxCell>
        <mxCell id="mB1IJVl_30VsdPy1DvS--63" value="&lt;font style=&quot;font-size: 10px&quot;&gt;cnt = 1&lt;br&gt;SIGUSR1&lt;/font&gt;" style="text;html=1;strokeColor=none;fillColor=none;align=center;verticalAlign=middle;whiteSpace=wrap;rounded=0;shadow=0;" vertex="1" parent="1">
          <mxGeometry x="4.3799999999999955" y="760" width="60" height="50" as="geometry" />
        </mxCell>
        <mxCell id="mB1IJVl_30VsdPy1DvS--65" value="&lt;font style=&quot;font-size: 10px&quot;&gt;cnt = 2&lt;br&gt;SIGUSR2&lt;br&gt;&lt;/font&gt;" style="text;html=1;strokeColor=none;fillColor=none;align=center;verticalAlign=middle;whiteSpace=wrap;rounded=0;shadow=0;" vertex="1" parent="1">
          <mxGeometry x="100.62" y="760" width="60" height="50" as="geometry" />
        </mxCell>
        <mxCell id="mB1IJVl_30VsdPy1DvS--66" value="&lt;font style=&quot;font-size: 10px&quot;&gt;cnt = 3&lt;br&gt;SIGUSR2&lt;br&gt;&lt;/font&gt;" style="text;html=1;strokeColor=none;fillColor=none;align=center;verticalAlign=middle;whiteSpace=wrap;rounded=0;shadow=0;" vertex="1" parent="1">
          <mxGeometry x="193.13" y="760" width="60" height="50" as="geometry" />
        </mxCell>
        <mxCell id="mB1IJVl_30VsdPy1DvS--67" value="&lt;font style=&quot;font-size: 10px&quot;&gt;cnt = 4&lt;br&gt;SIGUSR1&lt;br&gt;&lt;/font&gt;" style="text;html=1;strokeColor=none;fillColor=none;align=center;verticalAlign=middle;whiteSpace=wrap;rounded=0;shadow=0;" vertex="1" parent="1">
          <mxGeometry x="289.37" y="760" width="60" height="50" as="geometry" />
        </mxCell>
        <mxCell id="mB1IJVl_30VsdPy1DvS--68" value="&lt;font style=&quot;font-size: 10px&quot;&gt;cnt = 5&lt;br&gt;SIGUSR1&lt;br&gt;&lt;/font&gt;" style="text;html=1;strokeColor=none;fillColor=none;align=center;verticalAlign=middle;whiteSpace=wrap;rounded=0;shadow=0;" vertex="1" parent="1">
          <mxGeometry x="377.5" y="760" width="60" height="50" as="geometry" />
        </mxCell>
        <mxCell id="mB1IJVl_30VsdPy1DvS--69" value="&lt;font style=&quot;font-size: 10px&quot;&gt;cnt = 6&lt;br&gt;SIGUSR1&lt;br&gt;&lt;/font&gt;" style="text;html=1;strokeColor=none;fillColor=none;align=center;verticalAlign=middle;whiteSpace=wrap;rounded=0;shadow=0;" vertex="1" parent="1">
          <mxGeometry x="467.5" y="760" width="60" height="50" as="geometry" />
        </mxCell>
        <mxCell id="mB1IJVl_30VsdPy1DvS--70" value="&lt;font style=&quot;font-size: 10px&quot;&gt;cnt = 7&lt;br&gt;SIGUSR1&lt;br&gt;&lt;/font&gt;" style="text;html=1;strokeColor=none;fillColor=none;align=center;verticalAlign=middle;whiteSpace=wrap;rounded=0;shadow=0;" vertex="1" parent="1">
          <mxGeometry x="557.5" y="760" width="60" height="50" as="geometry" />
        </mxCell>
        <mxCell id="mB1IJVl_30VsdPy1DvS--80" value="reset&lt;br&gt;&lt;font style=&quot;font-size: 8px&quot;&gt;cnt = 0&lt;br&gt;c_bit = 0&lt;/font&gt;" style="whiteSpace=wrap;html=1;rounded=0;shadow=0;" vertex="1" parent="1">
          <mxGeometry x="647.5" y="805.5" width="94.13" height="49" as="geometry" />
        </mxCell>
        <mxCell id="mB1IJVl_30VsdPy1DvS--83" value="" style="endArrow=classic;html=1;exitX=0;exitY=0.5;exitDx=0;exitDy=0;" edge="1" parent="1" source="mB1IJVl_30VsdPy1DvS--28">
          <mxGeometry width="50" height="50" relative="1" as="geometry">
            <mxPoint x="447.51" y="455" as="sourcePoint" />
            <mxPoint x="197.51" y="345" as="targetPoint" />
          </mxGeometry>
        </mxCell>
      </root>
    </mxGraphModel>
  </diagram>
</mxfile>
